<?xml version="1.0" encoding="UTF-8"?>
<!DOCTYPE svg PUBLIC "-//W3C//DTD SVG 1.1//EN" "http://www.w3.org/Graphics/SVG/1.1/DTD/svg11.dtd">
<svg xmlns="http://www.w3.org/2000/svg" version="1.1" width="100px" height="125px" style="shape-rendering:geometricPrecision; text-rendering:geometricPrecision; image-rendering:optimizeQuality; fill-rule:evenodd; clip-rule:evenodd" xmlns:xlink="http://www.w3.org/1999/xlink">
<g><path style="opacity:0.9" fill="#C18553" d="M -0.5,32.5 C -0.5,31.5 -0.5,30.5 -0.5,29.5C 3.18174,29.6653 6.84841,29.4986 10.5,29C 20.1667,25.3333 29.8333,21.6667 39.5,18C 47.2318,17.1439 54.8984,17.4772 62.5,19C 74.4939,24.4872 86.4939,29.6538 98.5,34.5C 95.503,35.4763 92.503,35.3097 89.5,34C 79.7695,30.8676 70.1028,27.5342 60.5,24C 51.0324,22.2068 41.699,22.8735 32.5,26C 21.9686,31.0224 10.9686,33.1891 -0.5,32.5 Z"/></g>
<g><path style="opacity:0.959" fill="#C18553" d="M 99.5,42.5 C 99.5,43.5 99.5,44.5 99.5,45.5C 90.7354,48.1441 82.2354,51.4774 74,55.5C 73.7097,60.4187 74.7097,65.0854 77,69.5C 77.6891,70.3567 78.5224,71.0233 79.5,71.5C 81.198,70.3192 82.8647,70.3192 84.5,71.5C 79.8036,77.556 76.137,84.2227 73.5,91.5C 72.675,92.3857 71.675,92.719 70.5,92.5C 70.6665,81.495 70.4998,70.495 70,59.5C 63.6155,66.429 57.1155,73.2624 50.5,80C 42.3801,87.3099 32.8801,91.4766 22,92.5C 8.07453,91.9263 2.40786,84.9263 5,71.5C 8.84522,65.333 14.3452,63.1663 21.5,65C 27.1691,67.8151 29.0024,72.3151 27,78.5C 24.2929,82.0349 20.7929,83.2016 16.5,82C 12.5149,78.6193 12.5149,75.286 16.5,72C 19.3471,71.0561 21.8471,71.5561 24,73.5C 22.3885,68.1179 18.8885,66.6179 13.5,69C 6.88864,74.4938 6.88864,80.1605 13.5,86C 16.2486,87.084 19.0819,87.9173 22,88.5C 39.1114,83.405 52.9447,73.5717 63.5,59C 55.2062,59.5359 46.8729,59.5359 38.5,59C 26.7425,55.9697 15.2425,52.1364 4,47.5C 2.59362,48.4138 1.09362,49.0805 -0.5,49.5C -0.5,47.1667 -0.5,44.8333 -0.5,42.5C 11.9416,39.6305 23.9416,35.4638 35.5,30C 45.2575,27.7974 54.9241,28.1308 64.5,31C 75.7468,36.1379 87.4135,39.9712 99.5,42.5 Z"/></g>
</svg>
