<svg width="68" height="92" viewBox="0 0 68 92" fill="none" xmlns="http://www.w3.org/2000/svg">
<path d="M42.8456 81.4987C41.2158 82.0898 39.5645 82.6327 37.8218 83.0169C37.8677 84.3005 37.8751 85.5369 37.5819 86.8271C36.6624 85.9222 35.9951 84.9098 35.3163 83.7416C34.9565 85.0719 34.5578 86.2734 33.6419 87.2557C32.813 86.2846 32.3235 85.1523 32.0448 83.7873C31.3766 84.9398 30.7006 85.9049 29.8342 86.82C29.4932 85.5497 29.4609 84.3182 29.5138 83.0399C27.7797 82.6246 26.0956 82.1161 24.4765 81.445C24.3092 81.646 24.3817 81.8337 24.3844 82.0048C24.4123 83.7567 24.4534 85.5083 24.4812 87.2601C24.5207 89.7422 23.087 91.4464 20.5943 91.8924C17.7177 92.4072 14.8501 91.041 13.4414 88.514C12.8586 87.4685 12.8859 86.3136 12.7667 85.1889C12.2686 80.4912 11.7397 75.7956 11.3317 71.0899C10.908 66.2028 8.17396 63.0209 3.92649 60.8863C3.08393 60.4628 2.20145 60.1167 1.33616 59.7377C0.107015 59.1992 -0.187742 58.6207 0.104014 57.3195C2.07209 48.5425 4.05025 39.7677 5.9991 30.9866C6.43544 29.0206 6.92521 27.0644 7.24149 25.0724C7.34602 24.4141 7.36942 23.7605 7.13586 23.1418C6.31845 20.9767 6.84337 19.0199 8.03566 17.161C9.85211 14.3289 12.2841 12.091 15.0157 10.1465C19.7704 6.76176 25.1067 4.97937 30.9217 4.5179C31.0437 4.50821 31.1651 4.49107 31.3564 4.46958C31.9402 2.93048 32.5805 1.39227 33.6324 0C34.6542 1.35659 35.2987 2.86642 35.8671 4.43931C37.0387 4.55541 38.183 4.66408 39.3174 4.86289C45.3053 5.91232 50.4831 8.57096 54.9847 12.5588C56.7252 14.1005 58.2897 15.7986 59.4337 17.8413C60.2786 19.3499 60.612 20.9096 60.0696 22.5952C59.6423 23.9235 59.9962 25.2164 60.2847 26.5073C62.5397 36.594 64.7963 46.6803 67.0577 56.7656C67.5216 58.8342 67.3839 59.1065 65.3743 59.9243C63.459 60.7038 61.6634 61.6787 60.0749 63.0128C57.7154 64.9944 56.3637 67.4894 56.06 70.5361C55.5208 75.9458 54.9746 81.3548 54.446 86.7655C54.2239 89.0399 52.1334 91.2443 49.5963 91.7924C47.7036 92.2013 45.9045 92.0512 44.3309 90.7914C43.3602 90.0143 42.8417 89.0317 42.8695 87.7703C42.9103 85.9169 42.9198 84.0628 42.9356 82.2089C42.9375 81.9935 42.9974 81.7673 42.8456 81.4987ZM31.425 28.2812C28.4208 28.6994 24.9415 29.3306 22.6864 31.5269C20.3629 33.7897 20.9137 37.2713 21.1289 40.1842C21.5325 45.6443 23.2468 51.4133 27.5597 55.1355C28.4394 55.8947 29.6261 56.9163 30.8254 57.0612C31.6235 57.1576 32.4799 57.0555 33.2836 57.0514C34.1104 57.0472 34.9393 57.1145 35.7646 57.1033C38.2789 57.0693 40.5128 54.7447 41.9485 52.9123C45.5786 48.2789 46.2306 42.2978 46.4131 36.6333C46.4887 34.2861 45.8077 32.2606 43.8093 30.8579C41.4891 29.2293 38.5353 28.6201 35.763 28.2778C35.5083 29.3877 35.5279 30.5716 35.2408 31.6657C35.0473 32.403 34.35 33.0151 33.5478 32.965C32.6251 32.9073 32.1403 32.1604 31.9813 31.3498C31.7813 30.3299 31.6103 29.3038 31.425 28.2812ZM25.7954 54.9967C25.5983 55.1306 25.6339 55.2648 25.6258 55.3792C25.3598 59.1518 25.5484 62.9066 26.1773 66.6329C26.6095 69.1943 26.3608 71.512 24.1438 73.2251C24.1315 73.5258 24.0837 73.7918 24.2438 74.0248C25.7941 74.863 29.6817 76.0629 30.5407 75.9701C30.5552 75.9331 30.577 75.8971 30.5832 75.8588C31.2621 71.6431 31.4026 67.3988 31.2666 63.1406C31.2313 62.0369 30.9901 60.9644 30.6871 59.9065C30.6047 59.6188 30.5415 59.3084 30.2728 59.1087C28.6416 57.8961 27.1172 56.5683 25.7954 54.9967ZM36.7661 76.0507C38.9966 75.6791 41.0367 74.9591 43.0208 74.1322C43.2041 73.3425 43.203 73.3437 42.6959 72.8679C41.8021 72.0293 41.2101 71.0254 41.0206 69.8125C40.8581 68.7724 40.9941 67.7421 41.1568 66.7138C41.7352 63.0581 41.8849 59.3817 41.6871 55.6896C41.6751 55.467 41.7073 55.2198 41.5212 54.9838C40.2117 56.5584 38.7528 57.8961 37.0856 59.0048C36.8718 59.147 36.8183 59.3604 36.7518 59.5674C36.3139 60.9304 36.0292 62.3188 35.9941 63.7563C35.9204 66.775 36.0827 69.7821 36.4025 72.7827C36.5162 73.85 36.6396 74.9164 36.7661 76.0507ZM65.5218 55.1623C58.6839 55.1623 51.9138 55.1623 45.0874 55.1623C45.0447 56.0123 45.0045 56.8148 44.962 57.6609C52.019 57.6609 59.0155 57.6609 66.0772 57.6609C65.8884 56.8113 65.7089 56.0038 65.5218 55.1623ZM22.1933 55.1644C15.3437 55.1644 8.55593 55.1644 1.76656 55.1644C1.57797 56.0174 1.39945 56.8249 1.2158 57.6555C8.27612 57.6555 15.2731 57.6555 22.3347 57.6555C22.2859 56.7958 22.2401 55.9897 22.1933 55.1644ZM64.5075 50.7482C58.1417 50.7482 51.8304 50.7482 45.4682 50.7482C45.4034 51.4806 45.3433 52.1587 45.2819 52.8517C51.8824 52.8517 58.4149 52.8517 65.0003 52.8517C64.8248 52.1027 64.6643 51.4179 64.5075 50.7482ZM21.797 50.7438C15.4329 50.7438 9.12118 50.7438 2.78285 50.7438C2.62151 51.468 2.46934 52.151 2.306 52.8841C8.90357 52.8841 15.403 52.8841 21.9759 52.8841C21.8924 52.1741 21.9719 51.4877 21.797 50.7438ZM20.8835 8.10722C23.4388 12.4813 25.5707 17.0019 27.1222 21.7932C27.6116 21.6837 28.0276 21.5907 28.5195 21.4806C27.3941 16.5068 26.0496 11.6506 23.7999 7.071C22.7488 7.35448 21.8252 7.68293 20.8835 8.10722ZM25.6233 22.2965C23.629 17.6905 21.7781 13.1081 18.9523 8.97565C17.9057 9.54426 16.9736 10.0833 16.0878 10.7467C19.3038 14.489 21.9618 18.5502 24.4639 22.7485C24.8525 22.597 25.1914 22.4649 25.6233 22.2965ZM19.5288 37.8114C19.8677 36.8483 20.585 35.4962 20.546 34.468C20.5137 33.6162 19.2809 33.1541 18.5616 33.0424C16.6571 32.7465 14.8317 33.9228 14.7279 35.8849C14.6297 37.7406 15.1594 39.6665 16.1294 41.2495C17.0156 42.6959 18.3841 44.6446 20.2824 43.7301C20.3712 43.1566 20.2839 42.6243 19.8413 42.1465C19.2208 42.2182 18.5059 42.4162 17.9429 42.0468C17.4224 41.7054 17.0624 40.9763 16.7664 40.4503C16.093 39.2534 15.6921 37.9275 15.7164 36.5511C15.737 35.3867 16.3694 34.3995 17.5688 34.1204C18.4662 33.9115 19.8325 34.229 19.5821 35.3725C18.7597 34.4814 17.3253 34.3659 16.4551 35.2889C15.6324 36.1616 15.9441 37.7109 16.2636 38.7382C16.476 39.421 17.2911 41.7716 18.2682 41.4383C19.0087 41.1858 18.6018 40.3139 18.462 39.8067C18.2658 39.0949 18.1199 38.3264 18.3967 37.6141C18.8373 37.3966 19.1204 37.6873 19.5288 37.8114ZM47.7813 35.3847C47.7443 34.1926 48.9822 33.9126 49.9632 34.1645C51.061 34.4465 51.6614 35.407 51.699 36.4824C51.7484 37.8979 51.2294 39.2995 50.5327 40.5126C50.2609 40.9858 49.9081 41.7298 49.4257 42.0286C48.783 42.4266 48.0379 41.981 47.3716 42.2432C47.0768 42.7213 47.0211 43.2394 47.1156 43.7676C49.0131 44.7202 50.5625 42.3365 51.3768 40.9509C52.2958 39.3871 52.8096 37.4776 52.6073 35.6639C52.4014 33.8175 50.7563 32.7534 48.9137 33.0506C48.1785 33.1692 46.8566 33.6438 46.8626 34.5142C46.8701 35.5825 47.5748 36.8134 47.8897 37.8242C48.2702 37.6937 48.5466 37.4096 48.9252 37.5529C49.8376 38.4778 48.3109 40.1442 48.7522 41.1381C49.4171 42.6356 50.7959 39.5583 50.9594 39.1187C51.3939 37.9501 51.8445 36.1943 50.8056 35.2064C49.9247 34.3687 48.6027 34.5871 47.7813 35.3847ZM41.9907 6.70326C39.9018 11.4099 39.0019 16.36 38.0481 21.3568C38.5127 21.4077 38.8573 21.5416 39.2463 21.4796C40.5866 16.6493 42.3366 12.0007 45.1072 7.74675C44.0981 7.29777 43.101 6.99448 41.9907 6.70326ZM47.1091 8.58769C44.3803 12.7752 42.4848 17.2938 40.7717 21.9443C41.071 22.0445 41.6724 22.3968 41.9884 22.3308C44.1199 17.9783 46.738 13.9076 49.8698 10.1099C48.9776 9.5527 48.1305 9.02981 47.1091 8.58769ZM44.567 23.842C47.5131 20.0663 50.8485 16.7081 54.4147 13.5236C53.5819 12.8391 52.8249 12.1582 51.9233 11.5494C48.771 15.2245 46.0154 19.1293 43.3825 23.0979C43.6851 23.4366 44.1717 23.6207 44.567 23.842ZM36.0877 24.74C40.8823 25.4685 45.2445 26.7713 47.5218 31.6763C48.6243 25.5537 41.3833 22.7752 36.4487 22.1374C36.2503 23.0069 36.1862 23.8514 36.0877 24.74ZM30.5573 22.2712C30.1232 22.1884 29.7861 22.3144 29.4448 22.3693C26.582 22.83 23.98 23.868 21.8263 25.8383C20.8614 26.7211 20.0882 27.7516 19.8556 29.0711C19.7145 29.8722 19.7266 30.6827 19.8981 31.5806C22.124 26.8346 26.3255 25.45 30.9749 24.7262C30.8317 23.8843 30.6964 23.0889 30.5573 22.2712ZM22.5234 61.1848C17.8643 61.1848 13.2294 61.1848 8.42246 61.1848C9.1542 61.9371 9.77675 62.5942 10.4257 63.2248C10.5177 63.3142 10.7381 63.2919 10.8991 63.292C14.605 63.2938 18.3109 63.2922 22.0168 63.2885C22.2196 63.2883 22.43 63.3212 22.6827 63.177C22.66 62.5469 22.662 61.8852 22.5234 61.1848ZM44.681 63.2858C47.5115 63.2858 50.3423 63.2594 53.1727 63.2818C54.2888 63.2906 55.6815 63.5419 56.7535 63.1446C57.2742 62.9515 57.4999 62.6052 57.8526 62.2086C58.1456 61.8791 58.5619 61.6162 58.7209 61.1884C54.0489 61.1884 49.4351 61.1884 44.7844 61.1884C44.7062 61.8973 44.681 62.5733 44.681 63.2858ZM46.4993 25.4183C50.0447 22.4457 53.5322 19.396 57.6089 17.0259C57.0635 16.1945 56.4 15.4731 55.6484 14.7674C51.975 17.8011 48.7269 21.1289 45.6976 24.654C45.9453 25.0151 46.1975 25.2169 46.4993 25.4183ZM4.22441 44.2381C4.35701 44.2572 4.45699 44.284 4.55697 44.284C8.69856 44.2843 12.8401 44.2829 16.9817 44.2786C17.2806 44.2783 17.5796 44.2558 17.8752 44.0544C17.0676 43.5303 16.4759 42.8295 15.8838 42.1274C12.1601 42.1274 8.45723 42.1274 4.72198 42.1274C4.55837 42.8215 4.40042 43.4915 4.22441 44.2381ZM51.2734 48.5306C55.5641 48.5306 59.7627 48.5306 64.0246 48.5306C63.8415 47.7766 63.6706 47.0726 63.5053 46.3913C59.4493 46.3913 55.4623 46.3913 51.4466 46.3913C51.4903 47.1321 51.5057 47.824 51.2734 48.5306ZM3.29179 48.5212C7.5498 48.5212 11.7406 48.5212 15.9513 48.5212C15.7769 47.7958 15.8342 47.1036 15.8021 46.3972C11.7789 46.3972 7.79268 46.3972 3.77756 46.3972C3.61195 47.1213 3.4553 47.8062 3.29179 48.5212ZM49.3146 44.2418C53.9957 44.2418 58.4909 44.2418 63.0465 44.2418C62.8915 43.5269 62.7424 42.8399 62.5881 42.1285C58.8352 42.1285 55.1125 42.1285 51.3496 42.1285C50.8022 42.8675 50.1555 43.5331 49.3146 44.2418ZM21.1517 24.9618C18.0438 21.4194 14.6424 18.1854 10.8415 15.2871C10.1932 15.978 9.6429 16.6507 9.11983 17.4335C13.2756 19.717 16.9347 22.6054 20.5383 25.6664C20.7462 25.4276 20.9192 25.2289 21.1517 24.9618ZM23.1637 23.487C20.3794 19.5255 17.2833 15.8854 14.1592 12.2268C13.4384 12.7877 12.7613 13.3278 12.1514 13.9924C15.9505 16.9947 19.17 20.4755 22.2462 24.1063C22.5753 23.8841 22.8437 23.703 23.1637 23.487ZM22.7937 65.2353C18.9554 65.2353 15.1558 65.2353 11.2895 65.2353C11.4752 65.9582 11.6487 66.6338 11.8197 67.2993C15.5418 67.2993 19.2006 67.2993 22.9074 67.2993C22.8921 66.594 22.94 65.9308 22.7937 65.2353ZM55.4344 67.2952C55.6155 66.6217 55.7958 65.9511 55.9818 65.2592C52.1164 65.2592 48.3439 65.2592 44.5508 65.2592C44.5087 65.9615 44.4702 66.6056 44.4289 67.2952C48.0926 67.2952 51.7081 67.2952 55.4344 67.2952ZM29.5944 81.9426C29.8599 80.5788 30.1169 79.2591 30.377 77.9231C28.2233 77.4175 26.2997 76.5515 24.2454 75.808C24.3534 77.3466 24.3524 78.7854 24.3542 80.2306C26.0583 80.9762 27.7727 81.5098 29.5944 81.9426ZM37.7234 81.9596C39.5529 81.4662 41.2851 80.9819 42.9846 80.2393C42.9846 78.7847 42.9846 77.3578 42.9846 75.8639C40.9791 76.6415 39.0328 77.4377 36.9459 77.948C37.207 79.2954 37.4571 80.586 37.7234 81.9596ZM47.9584 27.1041C48.2253 26.9545 48.4751 26.8142 48.7251 26.6743C51.9999 24.8408 55.2189 22.8957 58.8276 21.7275C59.0293 21.6622 59.2226 21.5674 59.2536 21.334C59.3625 20.5159 59.3404 19.7227 58.7278 18.9836C54.6479 21.0482 50.954 23.6241 47.4435 26.4337C47.5768 26.7608 47.7033 26.9384 47.9584 27.1041ZM12.4274 71.3272C16.0244 71.3272 19.5355 71.3272 23.1028 71.3272C23.0435 70.6394 23.1186 69.9962 22.9889 69.3665C19.3806 69.3665 15.8136 69.3665 12.203 69.3665C12.281 70.0482 12.3521 70.6689 12.4274 71.3272ZM44.3084 71.3268C47.8378 71.3268 51.3468 71.3268 54.9103 71.3268C54.946 70.6474 55.1431 70.0265 55.0783 69.3618C51.4817 69.3618 47.9154 69.3618 44.3084 69.3618C44.3084 70.0379 44.3084 70.6606 44.3084 71.3268ZM12.7869 75.2882C16.3099 75.2882 19.7609 75.2882 23.2635 75.2882C23.2222 74.5723 23.1842 73.9139 23.1466 73.2609C19.5916 73.2609 16.12 73.2609 12.6068 73.2609C12.6688 73.959 12.726 74.6028 12.7869 75.2882ZM19.7029 26.687C15.9897 24.0034 12.3286 21.3302 8.10084 19.491C7.64724 20.3971 7.67819 21.2401 7.92391 22.1003C11.925 23.4287 15.6335 25.3007 19.2574 27.3038C19.5043 27.1472 19.5738 26.931 19.7029 26.687ZM54.7096 73.263C51.1564 73.263 47.6922 73.263 44.197 73.263C44.197 73.979 44.197 74.6385 44.197 75.2918C47.6643 75.2918 51.0884 75.2918 54.5353 75.2918C54.5951 74.5948 54.6504 73.9517 54.7096 73.263ZM54.344 77.2854C50.8925 77.2854 47.5273 77.2854 44.1201 77.2854C44.0362 77.994 44.0457 78.672 44.0697 79.3413C47.4607 79.3413 50.7846 79.3413 54.1486 79.3413C54.2141 78.6524 54.2751 78.0098 54.344 77.2854ZM23.2597 77.2855C19.822 77.2855 16.4515 77.2855 13.0147 77.2855C13.1075 78.0029 13.0585 78.6875 13.2638 79.3684C16.6116 79.3684 19.9217 79.3684 23.2653 79.3684C23.333 78.6788 23.2934 78.0151 23.2597 77.2855ZM60.1507 31.1537C60.0345 30.4063 59.9119 29.7146 59.6552 29.0071C55.9607 29.3062 52.3563 29.9529 48.789 30.9199C48.7493 31.3866 48.7139 31.8019 48.6718 32.2957C52.5153 31.7383 56.3129 31.4123 60.1507 31.1537ZM18.6875 31.0111C16.6919 30.2654 8.65034 28.9333 7.55644 29.1672C7.41031 29.8097 7.21462 30.4506 7.15018 31.1781C11.0484 31.4119 14.9027 31.8319 18.7988 32.2709C18.7568 31.7953 18.7214 31.3951 18.6875 31.0111ZM13.6024 83.3521C16.9128 83.3521 20.1339 83.3521 23.3552 83.3521C23.3552 82.6457 23.3552 81.9847 23.3552 81.3012C20.0283 81.3012 16.7475 81.3012 13.3952 81.3012C13.4672 82.014 13.5338 82.6731 13.6024 83.3521ZM44.0002 83.3396C47.1925 83.3396 50.4299 83.3396 53.6939 83.3396C53.8581 82.6776 53.8572 81.9999 53.9095 81.3002C50.5876 81.3002 47.3232 81.3002 44.0002 81.3002C44.0002 81.9852 44.0002 82.6322 44.0002 83.3396ZM43.9157 85.1736C43.9157 85.8734 43.9157 86.4951 43.9157 87.134C47.0619 87.134 50.1782 87.134 53.3156 87.134C53.5328 86.4672 53.4769 85.827 53.5508 85.1736C50.3066 85.1736 47.1471 85.1736 43.9157 85.1736ZM23.4648 87.1357C23.5321 86.4537 23.4605 85.8197 23.4008 85.1897C20.17 85.1897 17.0088 85.1897 13.8057 85.1897C13.869 85.8677 13.8533 86.4922 14.0649 87.1357C17.1885 87.1357 20.2931 87.1357 23.4648 87.1357ZM48.7969 29.4608C52.2334 28.4195 55.653 27.4302 59.2021 26.7812C59.0579 26.0695 58.9548 25.4378 58.7242 24.8146C55.0783 25.3491 51.7814 26.7215 48.5459 28.3077C48.6344 28.7143 48.7114 29.0679 48.7969 29.4608ZM62.139 39.9799C61.9555 39.236 61.8906 38.5348 61.6059 37.9371C58.7171 37.9371 55.9181 37.9371 53.1047 37.9371C52.9095 38.6249 52.7234 39.2809 52.5251 39.9799C55.7415 39.9799 58.89 39.9799 62.139 39.9799ZM14.191 37.9331C11.3449 37.9331 8.52974 37.9331 5.65472 37.9331C5.49638 38.6046 5.34002 39.2677 5.17362 39.9733C8.39297 39.9733 11.5535 39.9733 14.7644 39.9733C14.5664 39.2688 14.3815 38.611 14.191 37.9331ZM31.0216 5.70742C29.2886 5.7957 27.6865 6.06577 26.0338 6.46305C26.7095 8.08315 27.2753 9.65551 27.8024 11.3285C28.7564 10.5256 29.9186 10.3876 30.958 9.89642C30.6558 8.51158 30.7139 7.15989 31.0216 5.70742ZM14.4472 87.9992C15.5526 91.3488 22.4909 92.4963 23.3635 88.4121C20.3572 89.0169 17.4211 88.3173 14.4472 87.9992ZM44.0377 88.4325C44.2169 89.676 45.649 90.8093 47.1899 90.9736C49.5773 91.2281 52.1889 89.9085 52.9315 88.004C49.9688 88.3491 47.0553 88.9959 44.0377 88.4325ZM60.6932 33.5158C58.0284 33.6094 55.431 33.6404 52.819 33.8831C53.0232 34.5631 53.207 35.1754 53.3986 35.8137C55.9874 35.6723 58.5496 35.7193 61.1832 35.6611C61.0127 34.9147 60.8608 34.2495 60.6932 33.5158ZM18.8133 28.561C15.4198 27.1628 12.064 25.8061 8.51028 24.8842C8.3498 25.5408 8.16192 26.1144 8.12159 26.7729C11.7093 27.4204 15.1553 28.4986 18.6389 29.57C18.6972 29.2326 18.7482 28.9377 18.8133 28.561ZM6.58437 33.5194C6.4294 34.2476 6.28461 34.9281 6.12121 35.6959C8.79458 35.6959 11.3585 35.6959 13.9517 35.6959C13.9677 35.0729 14.2643 34.5082 14.4192 33.8791C11.7967 33.6731 9.21305 33.5687 6.58437 33.5194ZM38.3029 10.8519C38.7283 9.23533 39.1335 7.69578 39.547 6.12464C38.4478 5.83617 37.3693 5.77901 36.2249 5.6121C36.5101 7.10032 36.6929 8.51803 36.1506 9.93233C36.8914 10.2488 37.5832 10.5444 38.3029 10.8519ZM20.2919 46.6065C21.1345 46.4492 21.4477 45.7209 20.7763 45.0906C20.1704 44.5218 19.0955 44.5 18.3565 44.7951C16.7419 45.4399 16.1332 47.4412 17.1659 48.8287C18.0311 49.9911 20.1217 50.5591 21.2827 49.4681C21.7732 49.0072 22.012 48.179 21.6083 47.5868C21.1065 46.8506 20.0343 47.2295 19.3882 47.558C19.3959 48.3942 19.9904 47.6183 20.2247 47.5467C20.859 47.3528 21.3198 48.1512 21.1162 48.6501C20.6584 49.7717 18.8611 49.6268 18.0865 49.0189C17.0743 48.2248 16.9339 46.6837 17.8933 45.7874C18.3511 45.3597 20.5747 44.6218 20.639 45.7848C19.3301 45.3277 17.4654 45.6276 17.6204 47.3917C17.7352 48.6978 20.2553 49.9059 20.5756 48.1701C19.5442 49.4604 17.7351 48.1861 18.1369 46.7468C18.4265 45.7096 20.6225 45.1661 20.2919 46.6065ZM33.5933 1.29115C32.6394 3.19086 31.7113 5.19187 31.4673 7.3223C31.2989 8.79211 31.8279 10.8979 33.7262 10.7875C37.5004 10.5681 34.7219 2.91806 33.5933 1.29115ZM47.6437 47.7202C47.0742 47.1381 46.0182 46.8983 45.6306 47.8096C45.2599 48.6815 46.052 49.5139 46.8131 49.8275C48.3168 50.447 50.1536 49.4204 50.5673 47.9074C51.0721 46.0612 49.2898 44.2469 47.4004 44.6744C46.8394 44.8013 45.9647 45.3797 46.1457 46.0781C46.2481 46.473 46.6654 46.4721 46.9915 46.5868C47.4125 46.7348 47.7686 46.9494 47.9738 47.3593C48.2461 46.7194 48.2461 46.7194 46.8898 46.1985C46.7884 46.0109 46.7344 45.8058 46.8449 45.589C48.9677 44.2052 51.1357 46.9642 49.5283 48.7752C48.8373 49.5537 47.6383 49.6731 46.7756 49.0986C46.3584 48.8208 45.8647 48.2836 46.3735 47.8269C46.7858 47.4567 47.3392 47.9888 47.6437 47.7202ZM32.5613 76.4613C32.2189 79.6928 31.24 82.6281 30.5097 83.8477C31.1908 81.2847 31.9473 78.9188 32.1436 76.4367C31.9996 76.3049 31.8399 76.23 31.5928 76.2612C31.4057 79.0792 30.3754 81.772 30.2978 84.6231C32.0597 82.2145 33.0381 79.5423 33.1678 76.5543C32.9543 76.5216 32.7773 76.4944 32.5613 76.4613ZM36.9177 83.7604C35.6416 81.4941 35.0283 79.0299 34.6767 76.4992C34.4302 76.4993 34.2487 76.486 34.0786 76.6007C34.3259 79.5451 35.3114 82.212 37.0817 84.5953C37.0569 81.719 35.7371 79.0602 35.7751 76.1872C35.501 76.1763 35.325 76.2628 35.1363 76.4132C35.1898 78.9318 36.1761 81.3816 36.9177 83.7604ZM34.3583 61.2527C35.0218 60.2919 34.9367 58.8973 36.1718 58.1419C35.7333 59.2017 35.1861 60.1321 35.0221 61.1951C35.2817 61.2807 35.436 61.1996 35.6061 61.0459C35.8532 59.9793 36.2673 58.9302 36.6571 57.7633C34.6233 58.001 32.7029 57.9171 30.6849 57.7722C31.1649 58.9148 31.5251 59.9488 31.8029 61.0095C31.8784 61.2977 32.0849 61.3678 32.4078 61.295C32.0052 60.2202 31.6154 59.1793 31.2056 58.0852C32.7194 58.1303 34.1885 58.2952 35.6655 58.1597C35.3013 58.3759 34.8776 58.3973 34.529 58.6334C34.1843 58.8668 34.0074 59.2345 33.7813 59.5039C33.414 59.2935 33.5654 58.6175 32.8589 58.7048C33.3758 59.4719 33.5898 60.2895 33.7023 61.3024C34.0152 60.339 33.9061 59.3453 34.938 58.7708C34.6634 59.6428 34.3662 60.3972 34.3583 61.2527ZM31.7464 25.4499C31.9841 26.7172 32.2374 27.9823 32.5424 29.2357C32.6613 29.7243 33.0326 32.2792 33.7486 32.0548C34.3976 31.8514 34.6724 29.5342 34.7904 28.9425C35.0268 27.7576 35.2913 26.5472 35.3742 25.3406C34.4954 25.3844 34.5999 27.321 34.5153 27.9221C34.3396 29.1707 34.1198 30.4169 33.7157 31.6157C33.0573 30.6466 32.9191 29.0853 32.691 27.9611C32.5938 27.4821 32.5297 25.2977 31.7464 25.4499ZM33.6766 16.56C31.3181 16.6106 31.1075 20.5544 32.0939 21.9832C32.4141 21.0156 32.5988 20.0474 32.6804 18.9298C32.243 19.6432 32.373 20.3633 32.1377 21.1294C31.7671 19.4082 32.2613 18.0536 33.215 16.7455C33.6286 17.6295 33.2831 18.9788 33.2897 19.926C33.2928 20.3708 33.0512 22.5443 33.8592 22.2809C33.7898 20.3693 33.653 18.467 33.6766 16.56ZM28.7114 11.4989C27.1626 12.1694 27.0452 13.8841 28.3304 14.8878C29.1153 15.5008 30.1138 15.8319 31.0895 15.9948C31.4743 16.059 33.2182 16.4733 33.1939 15.8202C31.7376 15.5432 30.0655 15.3804 28.8642 14.4263C27.7997 13.5809 28.2547 12.5588 28.7114 11.4989ZM33.7921 16.1156C35.4565 16.3669 37.4197 16.0143 38.7226 14.8384C39.9594 13.7222 39.2924 12.061 37.9663 11.3896C38.1043 12.0143 38.7588 12.4156 38.8084 13.1215C38.8475 13.6773 38.5614 14.1234 38.1363 14.4602C37.4948 14.9684 36.5995 15.2669 35.8216 15.4943C35.2865 15.6508 34.099 15.5948 33.7921 16.1156ZM34.6558 11.2247C35.1132 12.1881 35.0718 13.8477 33.5495 13.7196C32.1309 13.6002 32.1744 12.3039 32.4754 11.2988C31.6577 11.5468 31.4586 12.4179 31.7517 13.1488C32.0754 13.9563 32.9981 14.3753 33.8394 14.3316C35.4966 14.2454 36.5833 11.7953 34.6558 11.2247ZM33.9377 80.5393C33.8088 81.9983 33.7721 83.2883 33.7338 84.5783C33.4352 83.1965 33.5745 81.7971 33.5222 80.341C32.6817 82.0955 32.8348 83.7595 33.6074 85.5264C34.4141 83.8917 34.6103 82.3328 33.9377 80.5393ZM35.0315 22.153C36.0078 20.5816 36.439 17.1195 33.9391 16.6384C35.2541 18.4284 35.5365 19.6273 34.9721 21.0452C34.8207 20.3009 34.7931 19.5784 34.3919 18.9497C34.6051 20.0174 34.8183 21.0852 35.0315 22.153ZM34.3845 14.9685C33.0156 14.9016 31.5953 14.8402 30.7185 13.6349C30.3224 13.0903 30.0813 12.3787 30.47 11.7654C30.8191 11.2148 31.5027 11.025 32.0761 10.7875C31.3251 10.4455 30.2522 10.9246 29.9464 11.6753C29.6703 12.3533 30.0898 13.2379 30.4581 13.8089C31.2343 15.0122 33.0287 15.8835 34.3845 14.9685ZM34.8056 15.1763C35.9732 15.1115 37.0778 14.2124 37.2595 13.0486C37.4345 11.9275 36.6118 10.5691 35.3492 10.6869C36.2047 11.3211 37.0244 11.9846 36.6426 13.1494C36.4566 13.7171 36.0572 14.0939 35.5944 14.4482C35.3888 14.6056 34.7668 14.8557 34.8056 15.1763ZM20.759 39.3975C19.1665 39.659 19.3442 41.7186 21.0473 41.3307C20.9068 40.7077 20.9931 40.0504 20.759 39.3975ZM32.7804 12.2058C32.7901 13.3971 34.4013 13.6053 34.5274 12.3698C34.6639 11.0312 32.7677 10.6444 32.7804 12.2058ZM46.3595 41.3449C47.0224 41.4284 47.7796 41.3424 47.7924 40.512C47.803 39.8285 47.2536 39.3554 46.5874 39.4099C46.5129 40.0424 46.4404 40.6577 46.3595 41.3449ZM46.8188 48.3445C47.6759 49.4251 49.4375 48.904 49.6565 47.5885C49.8974 46.1416 48.3336 45.0772 47.0498 45.8224C48.1239 45.6399 49.1948 45.9714 49.1755 47.2458C49.1546 48.6347 47.8642 48.9365 46.8188 48.3445ZM35.9876 75.2013C35.172 75.4055 34.3962 75.5429 33.5957 75.5601C32.7768 75.5777 32.0085 75.3046 31.1671 75.1821C31.8168 76.3517 35.2441 76.4462 35.9876 75.2013ZM35.7085 23.4633C34.2323 23.8176 32.7906 23.8642 31.3205 23.2636C31.8458 24.6921 34.9347 24.5287 35.7085 23.4633ZM31.3741 24.2665C31.7341 24.9334 32.3829 25.1222 33.8108 25.0854C34.7842 25.0603 35.2329 24.892 35.442 24.4436C34.1025 24.6848 32.7867 24.686 31.3741 24.2665ZM32.6326 25.7147C32.854 27.2275 33.0236 28.714 33.4622 30.1537C33.5086 28.7441 33.2997 27.3603 33.1316 25.973C33.1014 25.7237 32.9724 25.6134 32.6326 25.7147ZM31.8284 74.3984C32.6002 75.3264 35.0281 75.462 35.7357 74.3776C34.4277 74.6369 33.1356 74.674 31.8284 74.3984ZM29.5495 16.371C29.6893 17.2329 29.8105 18.0452 30.109 18.8261C30.3006 18.1037 30.7551 17.4417 30.5303 16.6495C30.2432 16.4938 29.9419 16.4005 29.5495 16.371ZM35.6551 72.5305C34.3021 72.6108 33.1129 72.7355 31.8665 72.4783C32.3464 73.238 34.7381 73.2933 35.6551 72.5305ZM31.6989 58.2045C32.4329 59.1005 32.4399 60.2907 32.9402 61.2642C33.1529 60.3144 32.5197 59.4684 32.7089 58.5285C32.3912 58.4266 32.0451 58.3156 31.6989 58.2045ZM29.3039 11.201C28.4199 12.0776 29.2843 14.0677 30.4547 14.3498C29.969 13.3599 29.0801 12.5422 29.3039 11.201ZM31.9964 70.7653C32.7332 71.3629 34.7547 71.3528 35.4394 70.7395C34.2389 70.7908 33.1179 70.8348 31.9964 70.7653ZM32.0199 65.2686C32.6422 66.1098 34.7569 66.1154 35.2468 65.2683C34.1497 65.5813 33.1318 65.5235 32.0199 65.2686ZM35.567 61.5837C34.2806 61.7597 33.0757 61.7596 31.8693 61.6526C32.7978 62.2553 34.9887 62.2248 35.567 61.5837ZM35.2282 68.9671C34.1754 69.1468 33.1305 69.104 31.9924 68.8995C32.6517 69.6388 34.607 69.6544 35.2282 68.9671ZM35.1844 67.2102C34.1472 67.469 33.114 67.3641 32.0805 67.1936C32.7527 67.8839 34.3671 67.9069 35.1844 67.2102ZM35.2202 63.4914C34.1835 63.7924 33.1426 63.6448 31.962 63.4601C32.7872 64.1965 34.5961 64.1797 35.2202 63.4914ZM34.0398 29.3178C34.163 28.1099 34.2862 26.9021 34.4094 25.6942C34.3163 25.6857 34.2232 25.6772 34.1301 25.6686C33.8673 26.8639 33.9509 28.0919 34.0398 29.3178ZM36.1336 16.8953C36.2917 17.5221 36.4403 18.111 36.5889 18.6999C36.6262 18.6988 36.6635 18.6977 36.7009 18.6966C36.7695 18.0369 36.8382 17.3772 36.9149 16.6396C36.5848 16.7476 36.3584 16.8217 36.1336 16.8953ZM34.9629 62.4977C34.0469 62.4667 33.1269 62.5923 32.2166 62.3616C32.966 62.9707 34.1705 63.0296 34.9629 62.4977ZM37.192 11.1594C37.7878 11.9642 37.8431 12.856 37.6104 13.865C38.3603 12.9406 38.1562 11.6885 37.192 11.1594ZM20.1075 46.5461C19.8068 46.0477 18.7903 46.4826 19.2128 46.9913C19.5561 46.9629 19.8393 46.8188 20.1075 46.5461Z" fill="#543855"/>
<path d="M31.8354 47.6305C31.0327 47.4069 30.5838 46.7494 30.7075 45.9227C30.8402 45.0356 31.7954 44.9055 32.0662 44.095C32.3831 43.1467 32.3402 41.9569 32.3461 40.9696C32.3522 39.9481 32.3612 38.7976 32.0127 37.824C31.4295 36.1949 29.6581 35.3439 28.0577 34.9893C25.8145 34.4924 23.8092 35.2041 21.7226 35.9375C22.7073 34.1314 23.4986 31.8817 26.0231 32.1659C27.1626 32.2941 28.3077 32.7389 29.3486 33.1961C30.1316 33.5401 31.6564 34.0035 31.951 34.8572C30.2308 33.9415 28.2339 32.8093 26.2199 32.8046C25.3721 32.8027 24.5785 33.0989 23.8991 33.5915C23.3568 33.9847 22.3708 34.7628 22.2625 35.4667C23.2292 35.3391 23.754 34.4084 24.5863 33.9984C25.438 33.5789 26.4009 33.5348 27.3303 33.6442C28.4464 33.7755 29.5373 34.099 30.5661 34.5408C31.6778 35.0182 32.0876 35.5753 32.4297 36.7194C33.0903 38.9285 33.0209 41.3799 32.5034 43.6113C32.4074 44.0252 32.312 44.4176 32.0072 44.7356C31.7271 45.0277 31.3466 45.1531 31.1464 45.5226C30.7394 46.2735 31.2208 47.154 31.8354 47.6305Z" fill="#543855"/>
<path d="M35.5502 34.829C35.5713 34.0683 37.4953 33.4575 38.0795 33.202C39.1295 32.743 40.2748 32.3226 41.4213 32.1852C43.8968 31.8886 44.6838 34.0802 45.6288 35.8778C43.6153 35.2888 41.7497 34.5063 39.6042 34.9189C37.8889 35.2487 35.9566 36.1464 35.3408 37.884C35.022 38.7834 35.0706 39.8139 35.0552 40.7542C35.0378 41.8157 34.9739 43.0848 35.3334 44.1016C35.614 44.8953 36.5536 45.0434 36.6885 45.932C36.8163 46.7742 36.3127 47.4313 35.5021 47.6438C36.2228 47.1615 36.61 46.4512 36.2439 45.6111C36.0544 45.1764 35.8167 45.1207 35.4734 44.8442C35.1735 44.6026 35.0716 44.281 34.9697 43.9251C34.3462 41.7463 34.2601 39.3194 34.8429 37.1269C35.1317 36.0403 35.3797 35.2122 36.4379 34.7169C37.3998 34.2667 38.4149 33.9156 39.4662 33.739C40.4097 33.5806 41.4924 33.4793 42.4086 33.8132C43.4107 34.1784 44.134 35.0826 45.1164 35.5362C44.7689 34.0958 42.8506 32.8872 41.4336 32.8053C39.4857 32.6927 37.1745 33.8655 35.5502 34.829Z" fill="#543855"/>
<path d="M45.3541 37.6842C43.9436 38.4274 42.3934 39.4073 40.7599 39.5215C39.1476 39.6342 37.627 38.6262 36.1523 39.739C36.3772 37.989 37.5446 36.3283 39.3506 35.9172C41.379 35.4554 43.5659 36.9282 45.3541 37.6842ZM38.5391 36.9058C37.72 37.3079 37.2588 37.9621 36.7656 38.8195C37.8185 38.4784 38.6918 38.616 39.5816 38.8272C41.2205 39.2161 42.6021 38.5044 44.0783 37.7578C43.3142 37.4417 42.6682 37.1744 42.002 36.8988C41.87 38.0061 41.4805 38.5186 40.7387 38.6313C39.6941 38.7901 39.1895 38.4084 38.5391 36.9058ZM40.1069 36.7048C39.7585 37.3545 40.5637 38.136 41.0799 37.4845C41.6082 36.8177 40.5494 36.6374 40.1069 36.7048Z" fill="#543855"/>
<path d="M31.2494 39.7463C30.224 39.021 29.1531 39.0827 28.0408 39.3782C27.0157 39.6507 26.0059 39.5403 25.0215 39.1378C24.0129 38.7255 23.0631 38.2015 22.0988 37.7147C22.1117 37.6552 22.1106 37.594 22.1282 37.5883C23.2808 37.2103 24.3765 36.6951 25.4959 36.2365C28.5793 34.9734 30.8469 37.0612 31.2494 39.7463ZM25.4488 36.9457C24.7452 37.2129 24.0488 37.4773 23.2176 37.7928C24.3292 38.239 25.5275 38.8897 26.7453 38.9549C28.0964 39.0272 29.2322 38.3322 30.5921 38.8699C30.1858 37.9766 29.6929 37.3116 28.8977 36.8819C28.5353 37.6689 28.1073 38.6837 27.0942 38.6854C26.0185 38.6872 25.6241 37.8732 25.4488 36.9457ZM27.2631 36.707C26.8382 36.6602 25.7414 37.0065 26.4571 37.508C27.0424 37.9181 27.4923 37.216 27.2631 36.707Z" fill="#543855"/>
<path d="M33.6415 49.6038C34.4079 48.9796 35.2281 49.1539 36.0574 49.5348C36.7772 49.8655 37.6067 50.5637 38.4235 50.1195C38.6899 50.6169 38.8888 51.0684 38.6746 51.8135C38.5033 50.9935 37.9318 50.9571 37.209 50.9828C36.1284 51.0211 35.1697 51.2563 34.1158 51.4105C33.1284 51.5549 32.0221 51.041 31.019 50.987C30.5211 50.9602 29.8016 50.8365 29.3215 50.9713C28.9495 51.0758 28.8757 51.3825 28.6411 51.6581C28.5022 51.0629 28.6543 50.6103 28.9502 50.1212C30.4551 51.0436 32.0859 48.1449 33.6415 49.6038ZM30.5935 50.3815C31.5563 50.4595 32.4661 50.6925 33.3729 50.9654C33.5988 51.0333 33.8902 51.0546 34.1023 50.9728C34.9712 50.6375 35.8754 50.5249 36.9718 50.4944C36.5566 50.2758 36.2972 50.1301 36.0299 50.0005C35.3466 49.6692 34.6609 49.4083 33.9406 49.9252C33.7519 50.0606 33.553 50.0059 33.3639 49.8855C32.9068 49.5944 32.4353 49.6184 31.9516 49.8257C31.5021 50.0183 31.0464 50.1968 30.5935 50.3815Z" fill="#543855"/>
<path d="M37.5187 51.2538C36.8468 52.4555 36.0511 53.2802 34.667 53.2935C34.071 53.2992 33.4748 53.2932 32.8791 53.3077C31.4198 53.3434 30.5032 52.5696 29.8305 51.2592C32.3967 53.0977 34.9153 53.1379 37.5187 51.2538Z" fill="#543855"/>
<path d="M35.5464 46.2381C35.6648 46.4304 35.6398 46.5863 35.5898 46.7776C35.148 47.0802 34.2363 46.6735 34.2115 47.6167C33.8659 47.693 33.5612 47.6777 33.26 47.645C33.0619 47.4819 33.1327 47.2152 32.9704 47.0055C32.6335 46.9717 32.2698 46.9352 31.9211 46.9002C31.7746 46.6872 31.7898 46.498 31.8888 46.2683C32.4728 46.1874 33.0078 46.1858 33.1415 46.9103C33.6699 47.1047 34.0623 47.1529 34.4254 46.7322C34.84 46.2517 34.8297 46.2332 35.5464 46.2381Z" fill="#543855"/>
<path d="M19.2679 36.4083C17.6137 36.476 17.5101 36.5943 17.4041 38.5885C16.9956 37.8322 16.5981 36.4673 17.4152 35.8265C18.103 35.2871 19.0432 35.5885 19.2679 36.4083Z" fill="#543855"/>
<path d="M49.9845 38.5255C49.7483 36.616 49.6235 36.465 48.1648 36.3997C48.2598 35.6045 49.2508 35.2846 49.8651 35.7799C50.7076 36.4591 50.2925 37.704 49.9845 38.5255Z" fill="#543855"/>
<path d="M33.6851 2.33405C34.3409 3.87011 34.9631 5.45812 35.1093 7.13346C35.1966 8.1343 35.0269 10.3644 33.5101 10.2791C31.9974 10.194 31.9727 7.89836 32.1307 6.87324C32.3758 5.28401 32.9749 3.77202 33.6851 2.33405ZM33.7191 10.0285C34.3603 8.04128 33.9778 6.18993 33.7509 4.34182C33.4859 5.86606 33.2348 7.38836 33.277 8.93659C33.2862 9.2724 33.2656 9.62427 33.7191 10.0285Z" fill="#543855"/>
<path d="M33.4639 11.5981C34.0403 11.8163 34.1187 12.0828 33.8023 12.6452C33.2201 12.5739 33.1342 12.331 33.4639 11.5981Z" fill="#543855"/>
</svg>
