<svg width="29" height="29" viewBox="0 0 29 29" fill="none" xmlns="http://www.w3.org/2000/svg">
<path fill-rule="evenodd" clip-rule="evenodd" d="M17.8857 23.9627C18.6305 23.888 19.1338 24.6786 18.782 25.3187C18.534 25.7697 18.1846 26.1633 17.766 26.4858C17.3391 26.8145 16.8438 27.0668 16.3125 27.2362C15.7809 27.4058 15.2165 27.4916 14.6501 27.4916C14.0836 27.4916 13.5192 27.4058 12.9876 27.2362C12.4563 27.0668 11.9611 26.8145 11.5342 26.4858C11.1156 26.1633 10.7661 25.7697 10.5182 25.3187C10.1663 24.6786 10.6696 23.888 11.4144 23.9627C11.6467 23.986 13.4648 24.1637 14.6501 24.1637C15.8353 24.1637 17.6534 23.986 17.8857 23.9627Z" fill="#543855"/>
<path fill-rule="evenodd" clip-rule="evenodd" d="M19.0219 2.4014C16.2478 1.16919 13.0417 1.21371 10.3058 2.52246C7.58472 3.82411 5.86442 6.49407 5.86442 9.41573V10.9547C5.86442 12.3227 5.5098 13.6691 4.8326 14.8724L4.55826 15.3597C2.86978 18.3598 4.71577 22.0706 8.20507 22.6904C12.4644 23.4472 16.832 23.4472 21.0914 22.6904L21.2855 22.656C24.7285 22.0442 26.6467 18.4754 25.1738 15.4222L24.8531 14.7574C24.316 13.6443 24.0378 12.4319 24.0378 11.2048V10.8163C23.4547 11.1593 22.7751 11.356 22.0496 11.356C19.8808 11.356 18.1225 9.59779 18.1225 7.42892C18.1225 5.59072 19.3856 4.04749 21.0911 3.61966C20.5453 3.18123 19.9349 2.80696 19.2699 2.51153L19.0219 2.4014Z" fill="#543855"/>
<path d="M22.0496 10.4502C23.718 10.4502 25.0705 9.0977 25.0705 7.42934C25.0705 5.76098 23.718 4.40851 22.0496 4.40851C20.3813 4.40851 19.0288 5.76098 19.0288 7.42934C19.0288 9.0977 20.3813 10.4502 22.0496 10.4502Z" fill="#FF0000"/>
</svg>
