<svg width="24" height="23" viewBox="0 0 24 23" fill="none" xmlns="http://www.w3.org/2000/svg">
<g clip-path="url(#clip0_170_10743)">
<path d="M3 21C3 18.9793 3.89553 17.0414 5.48959 15.6125C7.08365 14.1837 9.24566 13.381 11.5 13.381C13.7543 13.381 15.9163 14.1837 17.5104 15.6125C19.1045 17.0414 20 18.9793 20 21H17.875C17.875 19.4845 17.2034 18.031 16.0078 16.9594C14.8123 15.8878 13.1908 15.2857 11.5 15.2857C9.80925 15.2857 8.18774 15.8878 6.99219 16.9594C5.79665 18.031 5.125 19.4845 5.125 21H3ZM11.5 12.4286C7.97781 12.4286 5.125 9.87143 5.125 6.71429C5.125 3.55714 7.97781 1 11.5 1C15.0222 1 17.875 3.55714 17.875 6.71429C17.875 9.87143 15.0222 12.4286 11.5 12.4286ZM11.5 10.5238C13.8481 10.5238 15.75 8.81905 15.75 6.71429C15.75 4.60952 13.8481 2.90476 11.5 2.90476C9.15188 2.90476 7.25 4.60952 7.25 6.71429C7.25 8.81905 9.15188 10.5238 11.5 10.5238Z" fill="#543855"/>
</g>
<defs>
<clipPath id="clip0_170_10743">
<rect width="24" height="23" fill="white"/>
</clipPath>
</defs>
</svg>
