<svg width="30" height="38" viewBox="0 0 30 38" fill="none" xmlns="http://www.w3.org/2000/svg">
<path d="M23.64 18.6049L29.04 12.7377C29.49 12.2513 29.22 11.4609 28.59 11.3393L20.82 9.81925C20.31 9.72805 19.86 9.39365 19.59 8.90725L15.75 1.88486C15.42 1.30726 14.61 1.30726 14.31 1.88486L10.47 8.90725C10.2 9.36325 9.74999 9.69765 9.23999 9.81925L1.47 11.3697C0.839998 11.4913 0.569998 12.2817 1.02 12.7681L6.42 18.6353C6.78 19.0305 6.95999 19.5777 6.89999 20.0944L5.93999 28.0593C5.84999 28.7281 6.50999 29.2144 7.10999 28.9408L14.28 25.5665C14.76 25.3537 15.33 25.3537 15.81 25.5665L22.98 28.9408C23.58 29.2144 24.24 28.7281 24.15 28.0593L23.19 20.0944C23.1 19.5168 23.25 19.0001 23.64 18.6049Z" fill="#543855"/>
</svg>
