<svg width="51" height="39" viewBox="0 0 51 39" fill="none" xmlns="http://www.w3.org/2000/svg">
<path d="M50.9994 4.24959C51.0178 3.08321 50.6311 2.0927 49.8393 1.27809C49.029 0.444954 48.0623 0.0191312 46.939 0.000617135C45.7789 -0.0178969 44.7937 0.380155 43.9834 1.19477L16.2788 28.1605L7.21889 18.024C6.44548 17.1724 5.48792 16.7188 4.34622 16.6633C3.20452 16.5892 2.21014 16.941 1.36307 17.7186C0.516007 18.4776 0.0648511 19.4311 0.00960757 20.579C-0.0640505 21.7268 0.285825 22.7359 1.05923 23.606L12.9918 36.9639C13.489 37.5193 14.1059 37.9081 14.8425 38.1303C15.5607 38.3525 16.288 38.3802 17.0246 38.2136C17.7612 38.0285 18.4057 37.6767 18.9581 37.1583L49.7564 7.16555C50.5666 6.35093 50.981 5.37895 50.9994 4.24959Z" fill="#C18553"/>
</svg>
