<svg width="24" height="23" viewBox="0 0 24 23" fill="none" xmlns="http://www.w3.org/2000/svg">
<g clip-path="url(#clip0_170_10713)">
<path d="M5 15.3333V21.0833H3V2.875H12.382C12.5677 2.8751 12.7496 2.92472 12.9075 3.01832C13.0654 3.11192 13.193 3.2458 13.276 3.40496L14 4.79167H20C20.2652 4.79167 20.5196 4.89263 20.7071 5.07236C20.8946 5.25208 21 5.49583 21 5.75V16.2917C21 16.5458 20.8946 16.7896 20.7071 16.9693C20.5196 17.149 20.2652 17.25 20 17.25H13.618C13.4323 17.2499 13.2504 17.2003 13.0925 17.1067C12.9346 17.0131 12.807 16.8792 12.724 16.72L12 15.3333H5ZM5 4.79167V13.4167H13.236L14.236 15.3333H19V6.70833H12.764L11.764 4.79167H5Z" fill="#543855"/>
</g>
<defs>
<clipPath id="clip0_170_10713">
<rect width="24" height="23" fill="white"/>
</clipPath>
</defs>
</svg>
