<svg width="24" height="23" viewBox="0 0 24 23" fill="none" xmlns="http://www.w3.org/2000/svg">
<g clip-path="url(#clip0_170_10740)">
<path d="M19 9.58329H20C20.2652 9.58329 20.5196 9.68426 20.7071 9.86398C20.8946 10.0437 21 10.2875 21 10.5416V20.125C21 20.3791 20.8946 20.6229 20.7071 20.8026C20.5196 20.9823 20.2652 21.0833 20 21.0833H4C3.73478 21.0833 3.48043 20.9823 3.29289 20.8026C3.10536 20.6229 3 20.3791 3 20.125V10.5416C3 10.2875 3.10536 10.0437 3.29289 9.86398C3.48043 9.68426 3.73478 9.58329 4 9.58329H5V8.62496C5 7.74401 5.18106 6.87168 5.53284 6.05779C5.88463 5.2439 6.40024 4.50438 7.05025 3.88145C7.70026 3.25852 8.47194 2.76439 9.32122 2.42727C10.1705 2.09014 11.0807 1.91663 12 1.91663C12.9193 1.91663 13.8295 2.09014 14.6788 2.42727C15.5281 2.76439 16.2997 3.25852 16.9497 3.88145C17.5998 4.50438 18.1154 5.2439 18.4672 6.05779C18.8189 6.87168 19 7.74401 19 8.62496V9.58329ZM5 11.5V19.1666H19V11.5H5ZM11 13.4166H13V17.25H11V13.4166ZM17 9.58329V8.62496C17 7.35413 16.4732 6.13535 15.5355 5.23674C14.5979 4.33813 13.3261 3.83329 12 3.83329C10.6739 3.83329 9.40215 4.33813 8.46447 5.23674C7.52678 6.13535 7 7.35413 7 8.62496V9.58329H17Z" fill="#543855"/>
</g>
<defs>
<clipPath id="clip0_170_10740">
<rect width="24" height="23" fill="white"/>
</clipPath>
</defs>
</svg>
