<svg width="32" height="32" viewBox="0 0 32 32" fill="none" xmlns="http://www.w3.org/2000/svg">
<path d="M29.5767 0H2.27513C1.67173 0 1.09304 0.240816 0.666371 0.66947C0.239701 1.09812 0 1.67951 0 2.28571V17.8834L5.95175 13.696C6.99601 12.9717 8.27432 12.6709 9.53013 12.854C10.786 13.0372 11.9264 13.6907 12.7225 14.6834L17.291 20.3886L20.913 18.0297C21.8961 17.3975 23.0674 17.1284 24.2263 17.2685C25.3852 17.4086 26.4595 17.9492 27.2652 18.7977L31.8519 23.6617V2.28571C31.8519 1.67951 31.6122 1.09812 31.1855 0.66947C30.7588 0.240816 30.1801 0 29.5767 0ZM24.2984 11.5383C23.4453 11.5383 22.6113 11.2841 21.9019 10.8079C21.1925 10.3317 20.6396 9.6549 20.3131 8.86301C19.9866 8.07113 19.9012 7.19976 20.0676 6.35911C20.2341 5.51845 20.6449 4.74625 21.2482 4.14017C21.8515 3.53409 22.6201 3.12135 23.4569 2.95413C24.2936 2.78691 25.161 2.87273 25.9492 3.20074C26.7374 3.52875 27.4111 4.08421 27.8851 4.79689C28.3591 5.50956 28.6121 6.34744 28.6121 7.20457C28.6097 8.3532 28.1544 9.4541 27.346 10.2663C26.5375 11.0785 25.4417 11.5359 24.2984 11.5383Z" fill="#C18553"/>
<path d="M22.4055 20.3337L17.7278 23.3691C17.445 23.554 17.1038 23.6265 16.7706 23.5724C16.4375 23.5183 16.1364 23.3415 15.9259 23.0766L10.593 16.4023C10.2307 15.9525 9.71343 15.656 9.14373 15.5713C8.57402 15.4866 7.99345 15.62 7.51704 15.9451L0 21.2297V29.7143C0 30.3205 0.239701 30.9019 0.666371 31.3305C1.09304 31.7592 1.67173 32 2.27513 32H29.5767C30.1801 32 30.7588 31.7592 31.1855 31.3305C31.6122 30.9019 31.8519 30.3205 31.8519 29.7143V27.6297L25.2813 20.6811C24.915 20.2994 24.4289 20.0563 23.905 19.993C23.381 19.9297 22.8514 20.0501 22.4055 20.3337Z" fill="#C18553"/>
<path d="M24.2984 8.79543C25.1729 8.79543 25.8819 8.08318 25.8819 7.20457C25.8819 6.32597 25.1729 5.61372 24.2984 5.61372C23.4239 5.61372 22.7149 6.32597 22.7149 7.20457C22.7149 8.08318 23.4239 8.79543 24.2984 8.79543Z" fill="#C18553"/>
</svg>
