<svg width="31" height="32" viewBox="0 0 31 32" fill="none" xmlns="http://www.w3.org/2000/svg">
<path d="M28.1016 25.0189C30.3673 21.7916 31.3601 17.813 30.883 13.8733C30.4059 9.93371 28.4936 6.32128 25.5261 3.75355C22.5586 1.18583 18.753 -0.149327 14.865 0.0132835C10.9771 0.175894 7.29135 1.82437 4.53985 4.63129C1.78835 7.43821 0.172421 11.1982 0.0130213 15.1645C-0.146379 19.1307 1.16241 23.013 3.67944 26.0403C6.19647 29.0676 9.73758 31.0183 13.5994 31.505C17.4613 31.9918 21.3613 30.9789 24.5249 28.6676C25.9056 27.6602 27.1141 26.4274 28.1016 25.0189ZM3.93344 15.8103C3.93344 13.4778 4.61141 11.1977 5.88163 9.25821C7.15185 7.31874 8.95727 5.80705 11.0696 4.91428C13.182 4.0215 15.5064 3.78773 17.749 4.24253C19.9915 4.69733 22.0516 5.82027 23.6686 7.46936C25.2856 9.11845 26.387 11.2196 26.8335 13.5073C27.2799 15.7949 27.0515 18.1662 26.177 20.3213C25.3024 22.4765 23.8211 24.3187 21.9203 25.6151C20.0195 26.9115 17.7846 27.6038 15.4982 27.6045C13.9796 27.605 12.4759 27.3002 11.0728 26.7077C9.66971 26.1152 8.3948 25.2465 7.32087 24.1513C6.24695 23.0561 5.39504 21.7557 4.81382 20.3246C4.23259 18.8934 3.93344 17.3595 3.93344 15.8103Z" fill="#C18553"/>
</svg>
