<svg width="30" height="37" viewBox="0 0 30 37" fill="none" xmlns="http://www.w3.org/2000/svg">
<g clip-path="url(#clip0_16_2914)">
<path d="M0.348602 9.62888L0.359702 9.63184C0.990002 9.80204 1.6725 9.87189 2.3361 9.8346C3.0024 9.79997 3.6531 9.67209 4.2798 9.51314C4.908 9.35301 5.5128 9.16534 6.1176 8.98952C6.7317 8.81133 7.3437 8.6139 7.9458 8.4061C9.1416 7.97483 10.2978 7.55422 11.4774 7.2816C12.0678 7.14751 12.6603 7.04717 13.2507 6.95363C13.8411 6.85832 14.4351 6.7935 15.0303 6.77574C16.2204 6.74022 17.412 6.87401 18.5652 7.19073C19.7196 7.52757 20.9112 7.9701 22.0863 8.40403C23.2668 8.84152 24.4527 9.29203 25.668 9.67624C26.8815 10.061 28.1223 10.3979 29.3934 10.5699C29.5122 10.5856 29.6277 10.5107 29.6565 10.3932C29.6874 10.2674 29.6091 10.141 29.4819 10.1105C27.0552 9.5309 24.7872 8.47744 22.4862 7.45091C21.9105 7.19339 21.3318 6.93646 20.7465 6.68753C20.1558 6.44096 19.5801 6.18966 18.9435 5.9789C17.6853 5.55947 16.3479 5.33954 15.0141 5.3357C14.3475 5.33244 13.6809 5.3721 13.0236 5.46298C12.3657 5.55355 11.7231 5.71842 11.0967 5.91526C9.8388 6.2974 8.6526 6.82132 7.5093 7.32156C6.9393 7.57434 6.3687 7.81322 5.7882 8.0364C5.1975 8.2587 4.6119 8.48662 4.0305 8.68168C2.8698 9.07802 1.6809 9.29706 0.487202 9.05612C0.334802 9.02563 0.181202 9.1165 0.139502 9.26687C0.0960024 9.42405 0.189602 9.58596 0.348602 9.62888Z" fill="#C18553"/>
<path d="M29.5287 12.847C27.1041 12.2651 24.6987 11.5271 22.3968 10.6098C21.2409 10.1362 20.0595 9.64102 18.8106 9.28227C17.5677 8.9096 16.251 8.69411 14.9292 8.67961C13.6224 8.67162 12.3 8.806 11.0304 9.15084C9.75843 9.48443 8.56953 9.98882 7.42113 10.4968L6.55863 10.873C6.27723 10.9923 5.99073 11.1047 5.70153 11.214C5.12283 11.4324 4.53483 11.6378 3.94353 11.8362C2.75913 12.2242 1.55613 12.5818 0.337229 12.8485C0.230429 12.8722 0.134729 12.9349 0.0696291 13.0246C0.0450291 13.0586 0.0240291 13.0956 0.00962912 13.1368C-0.0344709 13.2638 -0.0152709 13.3958 0.0483291 13.5035C0.0402291 13.9887 0.0729291 14.657 0.322229 14.5783C0.814229 14.4229 0.851429 14.0496 1.63743 14.1337C2.38743 14.3797 3.13503 14.6339 3.87123 14.9069C4.45293 15.1244 5.03313 15.3435 5.59563 15.5859C6.15243 15.8339 6.76113 16.0988 7.35633 16.3208C9.75513 17.2302 12.3288 17.7618 14.9325 17.7529C16.6914 17.7354 18.4296 17.4625 20.1108 17.004C19.653 17.443 19.215 17.8962 18.7818 18.3431C17.7174 19.4795 16.6869 20.6188 15.5793 21.6639C14.4726 22.7071 13.2981 23.6646 12.0189 24.4499C10.7478 25.229 9.37473 25.8322 7.93623 26.2289C7.16493 26.3742 6.37953 26.3973 5.63553 26.2531C4.88613 26.1125 4.17993 25.792 3.61413 25.308C3.05103 24.8252 2.62113 24.1823 2.47893 23.4917C2.32653 22.8009 2.48913 22.0727 2.91483 21.4822C3.32943 20.8881 3.99783 20.4305 4.70973 20.1934C5.39463 19.9717 6.18963 20.0783 6.80013 20.4962C7.10283 20.7043 7.36503 20.9769 7.54893 21.301C7.74063 21.6355 7.83963 21.9712 7.81503 22.3376C7.79403 22.6748 7.66143 22.9989 7.45533 23.2816C7.48473 23.1632 7.50453 23.0412 7.50453 22.9137C7.50453 22.0544 6.79833 21.3573 5.92683 21.3573C5.05563 21.3573 4.34943 22.0541 4.34943 22.9137C4.34943 23.7732 5.05563 24.4706 5.92683 24.4706C6.11373 24.4706 6.29013 24.433 6.45663 24.3741C6.50283 24.4028 6.55983 24.4138 6.61593 24.396L6.62403 24.3937C7.05333 24.2599 7.47033 24.0112 7.78773 23.6667C8.10543 23.3224 8.33103 22.8787 8.39613 22.3983C8.47053 21.9226 8.35023 21.4064 8.14593 20.9971C7.94133 20.5699 7.62903 20.189 7.24413 19.8977C6.47793 19.3119 5.41743 19.0932 4.46193 19.3599C3.54843 19.6251 2.71653 20.1384 2.11863 20.9086C1.52223 21.6702 1.24803 22.7177 1.43463 23.6859C1.60503 24.6615 2.16093 25.5081 2.87133 26.1377C3.58623 26.7729 4.47963 27.1923 5.40333 27.3824C6.33033 27.5736 7.27803 27.5422 8.17623 27.3782C8.18973 27.3756 8.20443 27.3723 8.21763 27.369L8.22213 27.3676C9.78483 26.9544 11.2887 26.3061 12.6546 25.4566C14.0274 24.6157 15.2637 23.5888 16.3881 22.4827C17.5182 21.3798 18.5475 20.2029 19.581 19.0609C20.1882 18.3837 20.7996 17.7109 21.45 17.1026V27.1604C21.45 27.3288 21.5292 27.4735 21.6972 27.5037C21.7188 27.5079 21.7194 27.5096 21.741 27.5096C21.885 27.5096 22.0071 27.4229 22.0599 27.2862C22.0761 27.245 23.6631 23.1895 25.2102 21.5672C25.3371 21.4345 25.3875 21.1377 25.2078 21.0936C25.0239 21.0483 25.0455 21.0832 24.6486 21.2398C24.6444 21.2413 24.3768 21.3197 23.9628 21.3197C22.9209 21.3197 22.2519 19.5845 22.0983 16.5328C22.2279 16.4265 22.359 16.3229 22.4919 16.2223C23.0889 15.995 23.6823 15.7129 24.2307 15.487C24.7977 15.2552 25.3803 15.0436 25.9674 14.842C27.1389 14.4321 28.3362 14.0573 29.5314 13.7161L29.5479 13.7113C29.6985 13.6681 29.8221 13.5485 29.862 13.3875C29.9214 13.1474 29.772 12.9056 29.5287 12.847ZM7.74273 15.2982C7.15713 15.0913 6.60933 14.8657 6.01443 14.6138C5.41893 14.372 4.82193 14.1512 4.21953 13.9493C3.49683 13.7075 2.77203 13.4846 2.04423 13.27C2.76243 13.0595 3.48183 12.8553 4.20183 12.6445C4.80873 12.4702 5.41443 12.2884 6.01923 12.0901C6.32133 11.991 6.62403 11.8868 6.92523 11.7755L7.81203 11.4591C8.99373 11.0449 10.1571 10.6516 11.3346 10.4189C11.5548 10.3757 11.7765 10.3414 11.9979 10.3073C11.1597 11.0257 10.6368 12.0294 10.6368 13.1427C10.6368 14.5457 11.4675 15.7753 12.7158 16.4765C11.0259 16.2853 9.35463 15.87 7.74273 15.2982ZM25.6353 13.8661C25.0302 14.0606 24.4275 14.266 23.8269 14.4975C23.211 14.7384 22.6671 14.9862 22.086 15.1934C20.6655 15.722 19.1952 16.1252 17.7048 16.3608C18.8439 15.6442 19.5891 14.4711 19.5891 13.1421C19.5891 12.1437 19.1667 11.2344 18.4752 10.5385C19.6587 10.8084 20.8329 11.1897 22.0296 11.5843C23.9253 12.2192 25.8336 12.7475 27.7443 13.2797C27.0414 13.4716 26.3343 13.6486 25.6353 13.8661Z" fill="#C18553"/>
</g>
<defs>
<clipPath id="clip0_16_2914">
<rect width="30" height="37" fill="white"/>
</clipPath>
</defs>
</svg>
