<svg width="46" height="58" viewBox="0 0 46 58" fill="none" xmlns="http://www.w3.org/2000/svg">
<g clip-path="url(#clip0_180_19102)">
<path d="M8.74878 38.3144C9.19197 38.7588 9.79149 39.0082 10.4164 39.0082C11.0413 39.0082 11.6408 38.7588 12.084 38.3144L20.4576 29.7486L28.8312 38.3144C29.2892 38.7763 29.9103 39.0358 30.558 39.0358C31.2057 39.0358 31.8268 38.7763 32.2848 38.3144C32.7427 37.8524 33 37.2259 33 36.5726C33 35.9193 32.7427 35.2928 32.2848 34.8308L23.7929 26.3844L32.2848 17.938C32.6723 17.4815 32.8748 16.8944 32.8518 16.2939C32.8288 15.6934 32.582 15.1238 32.1607 14.6988C31.7394 14.2739 31.1747 14.025 30.5794 14.0018C29.9841 13.9786 29.402 14.1828 28.9495 14.5737L20.4576 23.0201L12.084 14.5737C11.6315 14.1828 11.0494 13.9786 10.4541 14.0018C9.85881 14.025 9.29409 14.2739 8.87282 14.6988C8.45155 15.1238 8.20476 15.6934 8.18176 16.2939C8.15877 16.8944 8.36126 17.4815 8.74878 17.938L17.1224 26.3844L8.74878 34.8308C8.51245 35.054 8.32405 35.3237 8.19525 35.6233C8.06646 35.9229 8 36.246 8 36.5726C8 36.8991 8.06646 37.2222 8.19525 37.5218C8.32405 37.8214 8.51245 38.0912 8.74878 38.3144Z" fill="white"/>
</g>
<defs>
<clipPath id="clip0_180_19102">
<rect width="46" height="58" fill="white"/>
</clipPath>
</defs>
</svg>
