<svg width="35" height="44" viewBox="0 0 35 44" fill="none" xmlns="http://www.w3.org/2000/svg">
<path d="M22.519 4.58656H5.70148C6.27198 5.03712 6.63948 5.73408 6.63948 6.51904V30.3248C6.63948 31.4618 7.55998 32.3875 8.69048 32.3875C9.82098 32.3875 10.7415 31.4618 10.7415 30.3248V27.5792C10.7415 27.4349 10.8605 27.3152 11.004 27.3152H24.5735V18.4026C23.9575 18.6912 23.156 19.0291 22.2985 19.2896C21.8295 19.4304 20.9895 19.455 20.3175 19.4691C20.118 19.4726 19.9325 19.4797 19.7785 19.4867L18.0425 23.1616C18.0145 23.2214 17.9655 23.2672 17.906 23.2918C17.1885 23.5946 16.394 23.943 16.1945 24.0451C16.1525 24.0874 16.093 24.1155 16.03 24.119C16.023 24.119 16.016 24.119 16.009 24.119C15.89 24.119 15.7745 24.0346 15.7465 23.9149C15.7255 23.8269 15.7115 23.7706 15.7815 23.6966C15.9705 23.0208 17.1465 18.8214 17.787 17.5261C19.11 14.8509 21.3535 11 24.57 7.75104V6.64224C24.57 6.09312 24.3565 5.57568 23.968 5.18496C23.583 4.79424 23.0685 4.57952 22.519 4.57952V4.58656Z" fill="#C18553"/>
<path d="M11.263 27.8397V30.3213C11.263 31.1626 10.864 31.9088 10.2445 32.384H27.1845C28.315 32.384 29.2355 31.4582 29.2355 30.3213V27.8397H11.263Z" fill="#C18553"/>
<path d="M4.32599 11.5139H6.11449V6.51904C6.11449 5.45248 5.25349 4.58656 4.19299 4.58656H3.93749C2.87699 4.58656 2.01599 5.45248 2.01599 6.51904V11.5139H4.32949H4.32599Z" fill="#C18553"/>
<path d="M18.256 17.7654C17.7345 18.8214 16.8 22.0317 16.4255 23.3517C16.702 23.2285 17.0835 23.0666 17.612 22.8448L19.369 19.1171C19.411 19.0326 19.4915 18.9728 19.586 18.9658C19.768 18.9517 20.02 18.9446 20.3 18.9376C20.909 18.9235 21.742 18.9024 22.1445 18.7792C23.464 18.3779 24.689 17.7654 25.2035 17.4944L23.6215 15.217C23.555 15.1184 23.5585 14.9882 23.6355 14.8966C23.7125 14.8051 23.842 14.777 23.947 14.8262L26.453 16.0019C28.1225 14.9811 29.386 12.5946 29.68 12.0032L28.091 9.69056C28.0315 9.60256 28.028 9.48992 28.084 9.3984C28.14 9.3104 28.245 9.26112 28.3465 9.27872L30.9155 9.6976C31.493 8.31072 32.529 4.30848 32.8755 2.94624C25.2595 5.51936 20.4575 13.2986 18.2525 17.7619L18.256 17.7654Z" fill="#C18553"/>
</svg>
