<svg width="24" height="23" viewBox="0 0 24 23" fill="none" xmlns="http://www.w3.org/2000/svg">
<g clip-path="url(#clip0_170_10737)">
<path d="M12 20.0292L16.95 15.2854C17.9289 14.3472 18.5955 13.1519 18.8656 11.8506C19.1356 10.5494 18.9969 9.20058 18.4671 7.97483C17.9373 6.74908 17.04 5.70143 15.8889 4.96433C14.7378 4.22724 13.3844 3.83382 12 3.83382C10.6156 3.83382 9.26222 4.22724 8.11109 4.96433C6.95996 5.70143 6.06275 6.74908 5.53292 7.97483C5.00308 9.20058 4.86442 10.5494 5.13445 11.8506C5.40449 13.1519 6.07111 14.3472 7.05 15.2854L12 20.0292ZM12 22.7393L5.636 16.6405C4.37734 15.4343 3.52019 13.8974 3.17293 12.2244C2.82567 10.5513 3.00391 8.81709 3.6851 7.24108C4.36629 5.66507 5.51984 4.31804 6.99988 3.37032C8.47992 2.42259 10.22 1.91675 12 1.91675C13.78 1.91675 15.5201 2.42259 17.0001 3.37032C18.4802 4.31804 19.6337 5.66507 20.3149 7.24108C20.9961 8.81709 21.1743 10.5513 20.8271 12.2244C20.4798 13.8974 19.6227 15.4343 18.364 16.6405L12 22.7393ZM12 12.4583C12.5304 12.4583 13.0391 12.2564 13.4142 11.897C13.7893 11.5375 14 11.05 14 10.5417C14 10.0333 13.7893 9.54583 13.4142 9.18639C13.0391 8.82694 12.5304 8.62501 12 8.62501C11.4696 8.62501 10.9609 8.82694 10.5858 9.18639C10.2107 9.54583 10 10.0333 10 10.5417C10 11.05 10.2107 11.5375 10.5858 11.897C10.9609 12.2564 11.4696 12.4583 12 12.4583ZM12 14.375C10.9391 14.375 9.92172 13.9711 9.17158 13.2522C8.42143 12.5334 8 11.5583 8 10.5417C8 9.52501 8.42143 8.54999 9.17158 7.8311C9.92172 7.11221 10.9391 6.70834 12 6.70834C13.0609 6.70834 14.0783 7.11221 14.8284 7.8311C15.5786 8.54999 16 9.52501 16 10.5417C16 11.5583 15.5786 12.5334 14.8284 13.2522C14.0783 13.9711 13.0609 14.375 12 14.375Z" fill="#543855"/>
</g>
<defs>
<clipPath id="clip0_170_10737">
<rect width="24" height="23" fill="white"/>
</clipPath>
</defs>
</svg>
