<svg width="199" height="244" viewBox="0 0 199 244" fill="none" xmlns="http://www.w3.org/2000/svg">
<path d="M189.446 70.2625L175.652 43.0774C173.146 38.1424 168.166 35.0812 162.656 35.0812H158.664C147.545 23.4025 133.446 15.3161 117.836 11.6987C116.897 11.4783 115.959 12.0695 115.739 13.0114C115.52 13.9533 116.109 14.8952 117.047 15.1157C120.565 15.9323 123.999 16.9895 127.338 18.2671L114.916 65.4979C112.551 64.9969 110.17 64.601 107.78 64.3305V28.6181L112.116 10.4763C113.065 6.51321 110.774 2.43995 106.911 1.20244C101.901 -0.400813 96.6006 -0.400813 91.59 1.20244C87.7223 2.43995 85.4366 6.51321 86.3848 10.4763L86.4098 10.5815C68.7081 13.3821 52.2641 22.0247 39.8326 35.0762H35.8501C30.3355 35.0762 25.3549 38.1424 22.8546 43.0724L9.06058 70.2575C-2.00856 92.0718 -2.98172 117.538 6.3956 140.139L46.8993 237.782C48.4663 241.56 52.1094 244 56.1818 244H64.9802C70.5247 244 75.0362 239.471 75.0362 233.905V148.742C78.6444 152.705 83.1809 155.796 88.2912 157.665L90.8115 213.483C90.9063 215.547 92.6031 217.176 94.6592 217.176H103.842C105.903 217.176 107.6 215.547 107.69 213.483L110.21 157.665C115.32 155.796 119.862 152.71 123.465 148.742V233.905C123.465 239.471 127.976 244 133.521 244H142.319C146.392 244 150.04 241.56 151.607 237.782L192.111 140.139C201.483 117.543 200.515 92.0718 189.446 70.2625ZM159.138 38.5833H162.651C166.843 38.5833 170.631 40.913 172.537 44.6656L186.331 71.8508C186.506 72.2015 186.676 72.5522 186.845 72.9029H146.536L159.138 38.5833ZM155.904 37.2506L141.421 76.7006C138.277 74.5863 135.008 72.7376 131.655 71.1493L146.217 28.6932C149.651 31.2584 152.894 34.1142 155.904 37.2506ZM130.596 19.5947C135.023 21.5187 139.25 23.8584 143.248 26.5689L139.32 38.0171C138.457 32.1903 134.878 26.9296 129.394 24.154L130.596 19.5947ZM92.648 4.54422C96.9649 3.16141 101.531 3.16141 105.848 4.54422C107.979 5.2256 109.242 7.47516 108.718 9.6596L104.655 26.6591H93.8458L89.7834 9.6596C89.2544 7.47516 90.512 5.2256 92.648 4.54422ZM104.281 30.1662V38.5783C102.934 36.98 100.922 35.968 98.6717 35.968C96.92 35.968 95.3379 36.6995 94.2101 37.8718V30.1662H104.281ZM87.2232 14.0034L90.7167 28.6181V64.3255C88.3511 64.596 85.9906 64.9868 83.655 65.4778L71.2334 18.252C76.3787 16.283 81.7386 14.8501 87.2232 14.0034ZM67.9695 19.5897L69.302 24.665C63.8573 27.3254 60.2591 32.4308 59.2809 38.1324L55.3084 26.5388C59.3159 23.8434 63.5529 21.5136 67.9695 19.5897ZM52.339 28.6531L66.9016 71.1193C63.5229 72.7175 60.2341 74.5763 57.0701 76.7056L42.5874 37.2556C45.6067 34.1042 48.8705 31.2334 52.339 28.6531ZM12.1597 71.8558L25.9537 44.6706C27.8601 40.918 31.648 38.5883 35.8401 38.5883H39.3535L51.9547 72.9079H11.6457C11.8154 72.5572 11.9851 72.2015 12.1597 71.8558ZM9.60455 138.797C5.7069 129.403 3.68072 119.492 3.49607 109.572H40.5712C41.5344 109.572 42.3179 108.786 42.3179 107.819C42.3179 106.852 41.5344 106.065 40.5712 106.065H3.51603C3.77055 95.9446 5.95144 85.8792 10.0337 76.415H53.2423L54.5299 79.9221L56.4213 87.9835H51.0265C46.2155 87.9835 42.7521 92.6179 44.0895 97.2523L49.9036 117.378C51.276 122.133 56.6958 124.377 61.0077 121.977L64.007 120.309L67.191 133.887C67.6951 136.046 68.4187 138.12 69.322 140.094H10.1435L9.60455 138.797ZM71.5328 233.905C71.5328 237.537 68.5884 240.493 64.9702 240.493H56.1718C53.5118 240.493 51.1363 238.9 50.1132 236.435L39.4782 210.793H71.5378V233.905H71.5328ZM71.5328 207.291H38.016L25.5345 177.204H71.5278V207.291H71.5328ZM71.5328 173.692H24.0823L11.6008 143.606H71.1785C71.2933 143.797 71.413 143.982 71.5328 144.172V173.692ZM105.055 155.51C101.197 156.332 97.2893 156.332 93.4315 155.51C82.1877 153.116 73.2196 144.313 70.5896 133.08L58.178 80.1676C82.8914 63.073 115.605 63.073 140.318 80.1676L127.907 133.08C125.267 144.313 116.298 153.116 105.055 155.51ZM148.383 236.435C147.36 238.9 144.979 240.493 142.324 240.493H133.526C129.908 240.493 126.963 237.537 126.963 233.905V210.798H159.023L148.383 236.435ZM160.475 207.291H126.958V177.204H172.952L160.475 207.291ZM174.409 173.692H126.958V144.167C127.078 143.982 127.198 143.792 127.313 143.601H186.89L174.409 173.692ZM188.887 138.797L188.348 140.099H129.174C130.077 138.125 130.796 136.046 131.305 133.892L134.489 120.324L137.479 121.987C141.79 124.387 147.21 122.143 148.583 117.388L154.397 97.2623C155.734 92.6229 152.271 87.9935 147.46 87.9935H142.08L143.971 79.9322L145.259 76.42H188.467C192.55 85.8842 194.726 95.9496 194.985 106.07H158.928C157.965 106.07 157.181 106.857 157.181 107.824C157.181 108.791 157.965 109.577 158.928 109.577H195C194.81 119.492 192.779 129.403 188.887 138.797Z" fill="#C18553"/>
</svg>
