<svg width="35" height="44" viewBox="0 0 35 44" fill="none" xmlns="http://www.w3.org/2000/svg">
<g clip-path="url(#clip0_16_2980)">
<path d="M19.4097 2.1054L18.4734 0.0473022H17.4825H16.4916L15.5542 2.1087C11.1486 2.739 8.21405 5.2877 8.21405 5.2877L2.22577 21.7085C2.22577 21.7085 8.04014 23.0186 8.04014 29.1324C8.04014 35.2462 14.5491 35.2462 14.5491 35.2462V20.4864C12.2926 20.4864 11.772 17.6044 11.772 17.6044V8.1708C14.6366 5.2877 17.5 5.4032 17.5 5.4032C17.5 5.4032 20.3634 5.2877 23.228 8.1697V17.6033C23.228 17.6033 22.7073 20.4853 20.4509 20.4853V35.2462C20.4509 35.2462 26.9598 35.2462 26.9598 29.1324C26.9598 23.0186 32.7742 21.7085 32.7742 21.7085L26.7859 5.2877C26.7859 5.2877 23.835 2.7258 19.4097 2.1054Z" fill="#C18553"/>
<path d="M16.9794 26.4066H18.2809L18.9755 19.9441H15.9381L16.9794 26.4066Z" fill="#C18553"/>
<path d="M15.1999 10.0254C14.5403 10.0254 13.5505 10.0254 13.5505 10.0254C13.5505 10.9307 14.7197 10.9912 14.7197 10.9912H16.5189C16.5189 10.9912 16.2345 10.0254 15.1999 10.0254Z" fill="#C18553"/>
<path d="M21.4375 10.0254C21.4375 10.0254 20.4476 10.0254 19.7881 10.0254C18.7534 10.0254 18.4691 10.9912 18.4691 10.9912H20.2683C20.2683 10.9912 21.4375 10.9318 21.4375 10.0254Z" fill="#C18553"/>
</g>
<defs>
<clipPath id="clip0_16_2980">
<rect width="35" height="44" fill="white"/>
</clipPath>
</defs>
</svg>
