<svg width="24" height="23" viewBox="0 0 24 23" fill="none" xmlns="http://www.w3.org/2000/svg">
<g clip-path="url(#clip0_170_10710)">
<path d="M12.5 21C7.25315 21 3 16.7469 3 11.5C3 6.25315 7.25315 2 12.5 2C17.7469 2 22 6.25315 22 11.5C22 16.7469 17.7469 21 12.5 21ZM10.3245 18.7836C9.38724 16.7956 8.84428 14.6447 8.72565 12.45H4.9589C5.14376 13.912 5.74923 15.2888 6.70174 16.4131C7.65425 17.5375 8.91281 18.361 10.3245 18.7836ZM10.6285 12.45C10.7719 14.767 11.4341 16.9435 12.5 18.8644C13.5947 16.8927 14.2342 14.701 14.3715 12.45H10.6285ZM20.0411 12.45H16.2743C16.1557 14.6447 15.6128 16.7956 14.6755 18.7836C16.0872 18.361 17.3457 17.5375 18.2983 16.4131C19.2508 15.2888 19.8562 13.912 20.0411 12.45ZM4.9589 10.55H8.72565C8.84428 8.3553 9.38724 6.2044 10.3245 4.21635C8.91281 4.63899 7.65425 5.46252 6.70174 6.58688C5.74923 7.71125 5.14376 9.08805 4.9589 10.55ZM10.6294 10.55H14.3706C14.2335 8.29907 13.5944 6.10736 12.5 4.1356C11.4053 6.10728 10.7658 8.29899 10.6285 10.55H10.6294ZM14.6755 4.21635C15.6128 6.2044 16.1557 8.3553 16.2743 10.55H20.0411C19.8562 9.08805 19.2508 7.71125 18.2983 6.58688C17.3457 5.46252 16.0872 4.63899 14.6755 4.21635Z" fill="#543855"/>
</g>
<defs>
<clipPath id="clip0_170_10710">
<rect width="24" height="23" fill="white"/>
</clipPath>
</defs>
</svg>
