<svg width="24" height="24" viewBox="0 0 24 24" fill="none" xmlns="http://www.w3.org/2000/svg">
<g clip-path="url(#clip0_170_10725)">
<g clip-path="url(#clip1_170_10725)">
<path d="M12.5 23C7.25315 23 3 18.523 3 13C3 7.477 7.25315 3 12.5 3C17.7469 3 22 7.477 22 13C22 18.523 17.7469 23 12.5 23ZM12.5 21C14.5156 21 16.4487 20.1571 17.874 18.6569C19.2993 17.1566 20.1 15.1217 20.1 13C20.1 10.8783 19.2993 8.84344 17.874 7.34315C16.4487 5.84285 14.5156 5 12.5 5C10.4844 5 8.55126 5.84285 7.12599 7.34315C5.70071 8.84344 4.9 10.8783 4.9 13C4.9 15.1217 5.70071 17.1566 7.12599 18.6569C8.55126 20.1571 10.4844 21 12.5 21ZM11.55 16H13.45V18H11.55V16ZM13.45 14.355V15H11.55V13.5C11.55 13.2348 11.6501 12.9804 11.8282 12.7929C12.0064 12.6054 12.248 12.5 12.5 12.5C12.7699 12.5 13.0342 12.4193 13.2622 12.2673C13.4902 12.1154 13.6726 11.8984 13.788 11.6416C13.9034 11.3848 13.9472 11.0988 13.9142 10.8168C13.8813 10.5349 13.773 10.2686 13.6018 10.0489C13.4307 9.82924 13.2039 9.66523 12.9477 9.57597C12.6915 9.48671 12.4164 9.47587 12.1546 9.54471C11.8928 9.61354 11.6549 9.75923 11.4686 9.96482C11.2824 10.1704 11.1554 10.4274 11.1026 10.706L9.23865 10.313C9.3542 9.70508 9.62103 9.14037 10.0119 8.67659C10.4027 8.2128 10.9035 7.86658 11.4632 7.67332C12.0228 7.48006 12.6211 7.44669 13.197 7.57661C13.7729 7.70654 14.3057 7.99511 14.7409 8.41282C15.1761 8.83054 15.4981 9.36241 15.6741 9.95406C15.85 10.5457 15.8735 11.1759 15.7422 11.7803C15.6109 12.3847 15.3295 12.9415 14.9268 13.3939C14.5241 13.8462 14.0144 14.1779 13.45 14.355Z" fill="#543855"/>
</g>
</g>
<defs>
<clipPath id="clip0_170_10725">
<rect width="24" height="24" fill="white"/>
</clipPath>
<clipPath id="clip1_170_10725">
<rect width="24" height="24" fill="white" transform="translate(0 1)"/>
</clipPath>
</defs>
</svg>
