<svg width="38" height="47" viewBox="0 0 38 47" fill="none" xmlns="http://www.w3.org/2000/svg">
<path d="M31.8221 16.4119L21.4137 6.11308C21.1169 5.81943 21.1169 5.34326 21.4137 5.04961L22.5262 3.94883C22.823 3.65517 23.3042 3.65517 23.601 3.94883L34.0094 14.2477C34.3062 14.5413 34.3062 15.0175 34.0094 15.3111L32.8969 16.4119C32.6001 16.7056 32.1189 16.7056 31.8221 16.4119ZM21.1612 7.46108L16.1984 12.3716C15.3092 13.2552 15.3092 14.6803 16.1984 15.5639L22.2708 21.5724C23.1638 22.4522 24.604 22.4522 25.497 21.5724L30.4598 16.6618L21.1612 7.46108ZM2.30176 29.9158L1.45436 30.7506C1.15796 31.0438 1.15796 31.5214 1.45436 31.8146L5.84716 36.1612C6.14356 36.4545 6.62616 36.4545 6.92256 36.1612L7.76996 35.3265L2.30176 29.9158ZM13.0911 24.6468C12.8455 24.4036 12.6773 24.1081 12.5767 23.7892L11.1443 25.2064C10.7742 25.5728 10.7742 26.1695 11.1445 26.5359L11.1822 26.573C11.5405 26.9284 12.1663 26.9284 12.5257 26.573L13.9578 25.156C13.6354 25.0564 13.3367 24.89 13.0911 24.6468ZM15.2785 22.4826C15.0938 22.3001 14.8487 22.1995 14.5878 22.1995C14.327 22.1995 14.0819 22.3001 13.8974 22.4826C13.7128 22.6651 13.6113 22.9078 13.6113 23.1659C13.6113 23.424 13.7128 23.6668 13.8974 23.8493C14.2663 24.2142 14.9094 24.2142 15.2783 23.8493C15.4627 23.6668 15.5646 23.424 15.5646 23.1659C15.5646 22.9078 15.4631 22.6651 15.2785 22.4826ZM21.7198 22.6026L9.65852 34.5369C9.36212 34.8302 8.87952 34.8302 8.58312 34.5369L3.09592 29.1074C2.79952 28.8142 2.79952 28.3366 3.09592 28.0434L15.1571 16.1091C15.2331 16.1956 15.3091 16.2783 15.3927 16.361L21.4651 22.3733C21.5487 22.4523 21.6324 22.5312 21.7198 22.6026ZM16.7155 23.1659C16.7155 22.6133 16.4983 22.0941 16.1045 21.7049L16.0659 21.6664C15.6711 21.2757 15.1462 21.0605 14.5879 21.0605C14.0296 21.0605 13.5048 21.2757 13.1102 21.6664L10.3381 24.4089C9.52354 25.2152 9.52354 26.5272 10.3392 27.3346L10.3761 27.371C10.7708 27.7613 11.2955 27.9765 11.8539 27.9765C12.4122 27.9765 12.9369 27.7613 13.3317 27.3706L16.0845 24.6468C16.0849 24.6465 16.0852 24.6461 16.0856 24.6458L16.1035 24.6281C16.4983 24.2378 16.7155 23.7186 16.7155 23.1659ZM31.9424 6.79177L33.5827 5.16861C33.8053 4.94831 33.8053 4.59123 33.5827 4.37108C33.36 4.15078 32.9993 4.15078 32.7767 4.37108L31.1364 5.99423C30.9138 6.21453 30.9138 6.57162 31.1364 6.79177C31.2478 6.90193 31.3936 6.95702 31.5394 6.95702C31.6852 6.95702 31.8311 6.90193 31.9424 6.79177ZM34.2941 10.5955L36.4238 9.68539C36.7128 9.56202 36.8457 9.23009 36.721 8.94403C36.596 8.658 36.2601 8.52543 35.9718 8.64992L33.8421 9.55999C33.553 9.68336 33.4201 10.0153 33.5448 10.3013C33.638 10.5145 33.8476 10.6419 34.0684 10.6419C34.1437 10.6419 34.2206 10.627 34.2941 10.5955ZM28.3387 4.11461L29.2583 2.00713C29.383 1.7211 29.2501 1.38913 28.9611 1.26577C28.6705 1.14094 28.3362 1.27423 28.2118 1.55988L27.2923 3.66736C27.1676 3.95338 27.3004 4.28535 27.5895 4.40871C27.6633 4.4403 27.7398 4.45515 27.8151 4.45515C28.036 4.45515 28.246 4.32757 28.3387 4.11461Z" fill="#C18553"/>
</svg>
