<svg width="26" height="32" viewBox="0 0 26 32" fill="none" xmlns="http://www.w3.org/2000/svg">
<g filter="url(#filter0_d_170_10469)">
<path fill-rule="evenodd" clip-rule="evenodd" d="M2.76355 9.5365L13.2008 2.07069C13.264 2.02461 13.3407 1.99971 13.4195 1.99971C13.4983 1.99971 13.575 2.02461 13.6381 2.07069L24.0698 9.5365H25.4177C25.5392 9.54265 25.6594 9.50955 25.7597 9.44231C25.8599 9.37507 25.9348 9.27744 25.9726 9.16449C26.0104 9.05155 26.009 8.92959 25.9688 8.81746C25.9285 8.70533 25.8516 8.60927 25.7499 8.54412L14.1252 0.221143C13.9245 0.0774608 13.6821 0 13.4333 0C13.1845 0 12.9421 0.0774608 12.7414 0.221143L1.11673 8.54412C1.01501 8.60927 0.938076 8.70533 0.897826 8.81746C0.857577 8.92959 0.85625 9.05155 0.89405 9.16449C0.93185 9.27744 1.00667 9.37507 1.10696 9.44231C1.20724 9.50955 1.3274 9.54265 1.44886 9.5365H2.76355ZM16.5166 23.3514V14.6147C16.5159 14.3897 16.4241 14.1741 16.2612 14.0151C16.0984 13.856 15.8778 13.7663 15.6475 13.7656H11.1859C10.9556 13.7663 10.735 13.856 10.5722 14.0151C10.4093 14.1741 10.3175 14.3897 10.3168 14.6147V23.3514H16.5166ZM23.5827 10.0746V22.4888C23.5827 22.7142 23.4912 22.9304 23.3283 23.0901C23.1654 23.2498 22.9444 23.3398 22.7136 23.3405H17.2501V14.6147C17.2493 14.1996 17.0803 13.8018 16.7799 13.5084C16.4795 13.2149 16.0723 13.0497 15.6475 13.049H11.1859C10.7611 13.0497 10.3539 13.2149 10.0535 13.5084C9.75314 13.8018 9.58407 14.1996 9.58334 14.6147V23.3514H4.11976C4.00456 23.351 3.89058 23.3284 3.78439 23.2847C3.67821 23.2411 3.58193 23.1773 3.50112 23.0971C3.42031 23.0169 3.35657 22.9218 3.31358 22.8174C3.2706 22.713 3.24922 22.6013 3.25068 22.4888V10.0746L13.4167 2.80078L23.5827 10.0746Z" fill="#543855"/>
</g>
<defs>
<filter id="filter0_d_170_10469" x="-4" y="0" width="34" height="40" filterUnits="userSpaceOnUse" color-interpolation-filters="sRGB">
<feFlood flood-opacity="0" result="BackgroundImageFix"/>
<feColorMatrix in="SourceAlpha" type="matrix" values="0 0 0 0 0 0 0 0 0 0 0 0 0 0 0 0 0 0 127 0" result="hardAlpha"/>
<feOffset dy="4"/>
<feGaussianBlur stdDeviation="2"/>
<feComposite in2="hardAlpha" operator="out"/>
<feColorMatrix type="matrix" values="0 0 0 0 0 0 0 0 0 0 0 0 0 0 0 0 0 0 0.25 0"/>
<feBlend mode="normal" in2="BackgroundImageFix" result="effect1_dropShadow_170_10469"/>
<feBlend mode="normal" in="SourceGraphic" in2="effect1_dropShadow_170_10469" result="shape"/>
</filter>
</defs>
</svg>
