<svg width="29" height="33" viewBox="0 0 29 33" fill="none" xmlns="http://www.w3.org/2000/svg">
<path d="M28.9718 18.6369L27.0685 13.5924H19.244C19.8784 12.1911 20.3014 10.5096 20.3014 8.6879C20.2309 3.8535 17.6227 0 14.4506 0C11.2785 0 8.67038 3.8535 8.67038 8.6879C8.67038 10.5096 9.02284 12.1911 9.72775 13.5924H1.76227L0 18.6369L12.0539 17.3758L10.0802 33H18.8916L17.0588 17.4459L28.9718 18.6369ZM14.4506 14.0828C13.0408 14.0828 10.7146 10.6497 10.7146 7.98726C10.7146 5.32484 12.4064 3.15287 14.4506 3.15287C16.4949 3.15287 18.1867 5.32484 18.1867 7.98726C18.1867 10.5796 16.0014 14.0127 14.4506 14.0828Z" fill="#C18553"/>
</svg>
